<?xml version="1.0" standalone="no"?>
<!DOCTYPE svg PUBLIC "-//W3C//DTD SVG 20010904//EN"
 "http://www.w3.org/TR/2001/REC-SVG-20010904/DTD/svg10.dtd">
<svg version="1.0" xmlns="http://www.w3.org/2000/svg"
 width="205.000000pt" height="205.000000pt" viewBox="0 0 205.000000 205.000000"
 preserveAspectRatio="xMidYMid meet">
<metadata>
Created by potrace 1.11, written by Peter Selinger 2001-2013
</metadata>
<g transform="translate(0.000000,205.000000) scale(0.100000,-0.100000)"
fill="#000000" stroke="none">
<path d="M172 1248 l3 -703 80 -23 c314 -89 558 -25 658 175 53 104 75 270 58
426 -19 170 -66 266 -156 322 -45 28 -55 30 -149 30 -93 0 -105 -2 -154 -30
-30 -16 -62 -40 -73 -53 -19 -24 -19 -22 -19 267 l0 291 -125 0 -125 0 2 -702z
m469 46 c45 -23 69 -86 81 -212 20 -203 -19 -379 -94 -418 -35 -19 -132 -25
-181 -11 l-29 8 4 252 c3 252 3 252 31 308 40 83 114 112 188 73z"/>
<path d="M1380 1466 c-214 -59 -321 -252 -306 -551 9 -183 48 -287 128 -345
53 -38 104 -52 195 -52 82 1 138 21 195 71 20 17 39 31 43 31 11 0 -3 -136
-20 -195 -16 -57 -61 -106 -114 -124 -46 -15 -192 -13 -271 4 -36 7 -67 12
-69 10 -2 -2 -7 -41 -12 -87 -6 -60 -5 -84 4 -90 55 -34 345 -44 437 -16 120
37 200 119 249 251 l26 72 3 492 3 492 -43 12 c-142 38 -356 50 -448 25z m213
-157 l37 -10 0 -197 c0 -208 -8 -290 -36 -347 -47 -100 -199 -98 -241 2 -25
62 -38 220 -26 332 11 99 33 161 69 192 42 36 125 48 197 28z"/>
</g>
</svg>
