<?xml version="1.0" encoding="UTF-8" standalone="no"?>
<!-- Created with Inkscape (http://www.inkscape.org/) -->

<svg
   xmlns:dc="http://purl.org/dc/elements/1.1/"
   xmlns:cc="http://creativecommons.org/ns#"
   xmlns:rdf="http://www.w3.org/1999/02/22-rdf-syntax-ns#"
   xmlns:svg="http://www.w3.org/2000/svg"
   xmlns="http://www.w3.org/2000/svg"
   xmlns:sodipodi="http://sodipodi.sourceforge.net/DTD/sodipodi-0.dtd"
   xmlns:inkscape="http://www.inkscape.org/namespaces/inkscape"
   width="210mm"
   height="297mm"
   viewBox="0 0 210 297"
   version="1.1"
   id="svg8"
   inkscape:version="0.92.1 r"
   sodipodi:docname="logo_v1.svg">
  <defs
     id="defs2" />
  <sodipodi:namedview
     id="base"
     pagecolor="#ffffff"
     bordercolor="#666666"
     borderopacity="1.0"
     inkscape:pageopacity="0.0"
     inkscape:pageshadow="2"
     inkscape:zoom="0.94"
     inkscape:cx="14.628304"
     inkscape:cy="765.10565"
     inkscape:document-units="mm"
     inkscape:current-layer="layer6"
     showgrid="true"
     showguides="true"
     inkscape:guide-bbox="true"
     inkscape:window-width="1876"
     inkscape:window-height="1051"
     inkscape:window-x="44"
     inkscape:window-y="0"
     inkscape:window-maximized="1"
     inkscape:snap-grids="false"
     inkscape:snap-to-guides="false">
    <inkscape:grid
       type="xygrid"
       id="grid4719" />
  </sodipodi:namedview>
  <metadata
     id="metadata5">
    <rdf:RDF>
      <cc:Work
         rdf:about="">
        <dc:format>image/svg+xml</dc:format>
        <dc:type
           rdf:resource="http://purl.org/dc/dcmitype/StillImage" />
        <dc:title />
      </cc:Work>
    </rdf:RDF>
  </metadata>
  <g
     inkscape:groupmode="layer"
     id="layer5"
     inkscape:label="Hintergrund">
    <rect
       style="opacity:1;fill:#404040;fill-opacity:1;fill-rule:nonzero;stroke:#29d75c;stroke-width:0.15875;stroke-miterlimit:4;stroke-dasharray:none;stroke-opacity:0.97391304"
       id="rect4955"
       width="96.724846"
       height="32.740517"
       x="0.56126589"
       y="79.22879" />
  </g>
  <g
     inkscape:groupmode="layer"
     id="layer3"
     inkscape:label="Logo"
     style="display:inline">
    <g
       inkscape:label="Schrift Violett"
       inkscape:groupmode="layer"
       id="g4669"
       style="display:inline">
      <flowRoot
         xml:space="preserve"
         id="flowRoot4637"
         style="font-style:normal;font-variant:normal;font-weight:normal;font-stretch:normal;font-size:40px;line-height:25px;font-family:'Bree Serif';-inkscape-font-specification:'Bree Serif';letter-spacing:4.48000288px;word-spacing:3.06999993px;fill:#000000;fill-opacity:1;stroke:none;stroke-width:1px;stroke-linecap:butt;stroke-linejoin:miter;stroke-opacity:1"
         transform="scale(0.26458333)"><flowRegion
           id="flowRegion4633"
           style="font-style:normal;font-variant:normal;font-weight:normal;font-stretch:normal;font-family:'Bree Serif';-inkscape-font-specification:'Bree Serif';letter-spacing:4.48000288px;word-spacing:3.06999993px"><rect
             id="rect4631"
             width="615.14392"
             height="178.32869"
             x="48.635098"
             y="48.044273"
             style="font-style:normal;font-variant:normal;font-weight:normal;font-stretch:normal;font-family:'Bree Serif';-inkscape-font-specification:'Bree Serif';letter-spacing:4.48000288px;word-spacing:3.06999993px" /></flowRegion><flowPara
           id="flowPara4635" /></flowRoot>      <text
         xml:space="preserve"
         style="font-style:normal;font-weight:normal;font-size:10.58333302px;line-height:6.61458349px;font-family:sans-serif;letter-spacing:0px;word-spacing:0px;fill:#000000;fill-opacity:1;stroke:none;stroke-width:0.26458332px;stroke-linecap:butt;stroke-linejoin:miter;stroke-opacity:1"
         x="75.374207"
         y="57.386749"
         id="text4663"><tspan
           sodipodi:role="line"
           id="tspan4661"
           x="75.374207"
           y="63.443226"
           style="font-style:normal;font-variant:normal;font-weight:bold;font-stretch:normal;font-family:'Encode Sans Compressed';-inkscape-font-specification:'Encode Sans Compressed Bold';stroke-width:0.26458332px" /></text>
    </g>
    <g
       style="display:inline"
       id="g4629"
       inkscape:groupmode="layer"
       inkscape:label="Schrift Rot">
      <flowRoot
         transform="scale(0.26458333)"
         style="font-style:normal;font-variant:normal;font-weight:normal;font-stretch:normal;font-size:40px;line-height:25px;font-family:'Bree Serif';-inkscape-font-specification:'Bree Serif';letter-spacing:4.48000288px;word-spacing:3.06999993px;fill:#000000;fill-opacity:1;stroke:none;stroke-width:1px;stroke-linecap:butt;stroke-linejoin:miter;stroke-opacity:1"
         id="flowRoot4595"
         xml:space="preserve"><flowRegion
           style="font-style:normal;font-variant:normal;font-weight:normal;font-stretch:normal;font-family:'Bree Serif';-inkscape-font-specification:'Bree Serif';letter-spacing:4.48000288px;word-spacing:3.06999993px"
           id="flowRegion4591"><rect
             style="font-style:normal;font-variant:normal;font-weight:normal;font-stretch:normal;font-family:'Bree Serif';-inkscape-font-specification:'Bree Serif';letter-spacing:4.48000288px;word-spacing:3.06999993px"
             y="48.044273"
             x="48.635098"
             height="178.32869"
             width="615.14392"
             id="rect4589" /></flowRegion><flowPara
           id="flowPara4593" /></flowRoot>      <text
         id="text4621"
         y="57.386749"
         x="75.374207"
         style="font-style:normal;font-weight:normal;font-size:10.58333302px;line-height:6.61458349px;font-family:sans-serif;letter-spacing:0px;word-spacing:0px;fill:#000000;fill-opacity:1;stroke:none;stroke-width:0.26458332px;stroke-linecap:butt;stroke-linejoin:miter;stroke-opacity:1"
         xml:space="preserve"><tspan
           style="font-style:normal;font-variant:normal;font-weight:bold;font-stretch:normal;font-family:'Encode Sans Compressed';-inkscape-font-specification:'Encode Sans Compressed Bold';stroke-width:0.26458332px"
           y="63.443226"
           x="75.374207"
           id="tspan4619"
           sodipodi:role="line" /></text>
    </g>
    <g
       inkscape:label="Schrift Grundfarbe"
       inkscape:groupmode="layer"
       id="layer1"
       style="display:inline">
      <flowRoot
         xml:space="preserve"
         id="flowRoot4485"
         style="font-style:normal;font-variant:normal;font-weight:normal;font-stretch:normal;font-size:40px;line-height:25px;font-family:'Bree Serif';-inkscape-font-specification:'Bree Serif';letter-spacing:4.48000288px;word-spacing:3.06999993px;fill:#000000;fill-opacity:1;stroke:none;stroke-width:1px;stroke-linecap:butt;stroke-linejoin:miter;stroke-opacity:1"
         transform="scale(0.26458333)"><flowRegion
           id="flowRegion4487"
           style="font-style:normal;font-variant:normal;font-weight:normal;font-stretch:normal;font-family:'Bree Serif';-inkscape-font-specification:'Bree Serif';letter-spacing:4.48000288px;word-spacing:3.06999993px"><rect
             id="rect4489"
             width="615.14392"
             height="178.32869"
             x="48.635098"
             y="48.044273"
             style="font-style:normal;font-variant:normal;font-weight:normal;font-stretch:normal;font-family:'Bree Serif';-inkscape-font-specification:'Bree Serif';letter-spacing:4.48000288px;word-spacing:3.06999993px" /></flowRegion><flowPara
           id="flowPara4491" /></flowRoot>      <text
         xml:space="preserve"
         style="font-style:normal;font-weight:normal;font-size:10.58333302px;line-height:6.61458349px;font-family:sans-serif;letter-spacing:0px;word-spacing:0px;fill:#000000;fill-opacity:1;stroke:none;stroke-width:0.26458332px;stroke-linecap:butt;stroke-linejoin:miter;stroke-opacity:1"
         x="75.374207"
         y="57.386749"
         id="text4509-7"><tspan
           sodipodi:role="line"
           id="tspan4507-6"
           x="75.374207"
           y="63.443226"
           style="font-style:normal;font-variant:normal;font-weight:bold;font-stretch:normal;font-family:'Encode Sans Compressed';-inkscape-font-specification:'Encode Sans Compressed Bold';stroke-width:0.26458332px" /></text>
      <g
         id="g5006">
        <g
           inkscape:export-ydpi="800"
           inkscape:export-xdpi="800"
           id="text4659"
           style="display:inline;font-style:normal;font-weight:normal;font-size:19.75555611px;line-height:6.61458349px;font-family:sans-serif;letter-spacing:0px;word-spacing:0px;fill:#6441a4;fill-opacity:1;stroke:none;stroke-width:0.26458332px;stroke-linecap:butt;stroke-linejoin:miter;stroke-opacity:1"
           aria-label="beansgraph">
          <path
             sodipodi:nodetypes="cccccscccccscccccccccccccccccccccsccccccccscccsccccccccccccc"
             inkscape:connector-curvature="0"
             id="path4857"
             transform="scale(0.26458333)"
             d="m 269.69336,255.27933 -5.12695,-2.05078 -5.10157,4.08203 v 7.1582 c -0.94578,0.64711 -2.04071,1.31874 -3.28515,2.01563 -1.19467,0.6471 -2.34044,0.9707 -3.43555,0.9707 -1.39378,0 -2.46232,-0.42331 -3.20898,-1.26953 -0.15864,-0.17979 -0.29101,-0.38616 -0.41602,-0.59961 l -3.44922,2.75976 -7.02344,-1.40429 c 0.44853,1.91178 1.28729,3.55288 2.5254,4.91797 1.94132,2.09065 4.53006,3.13671 7.76562,3.13671 2.19022,0 4.23149,-0.49858 6.12305,-1.49414 1.89155,-1.04533 3.48312,-2.28886 4.77734,-3.73242 h 0.59766 l 0.82226,4.85352 h 8.4375 c -0.14651,-7.56229 -0.004,-19.65712 -0.002,-19.34375 z m 51.56641,-9.60938 -4.92774,2.95703 v 25.9961 h 10.23047 v -26.83203 z m -11.02348,6.61328 c 0.0196,0.91013 0,0 0,0 z m 0,0 -7.875,4.72461 -2.64649,0.5293 c 9.6e-4,-0.017 10e-4,-0.0377 0.002,-0.0547 -0.0732,1.31905 -0.19057,2.51449 -0.36328,3.55078 -0.29867,1.792 -0.77086,3.23497 -1.41797,4.33008 -0.59733,1.09511 -1.41756,1.89285 -2.46289,2.39063 -0.99556,0.448 -2.2166,0.67187 -3.66016,0.67187 -1.59289,0 -3.08474,-0.27471 -4.47852,-0.82226 v -7.58985 l -3.86914,0.77344 -6.36132,-2.54492 v 32.80664 h 10.23046 V 274.9219 c 0.896,0.1493 1.69179,0.24903 2.38868,0.29882 0.69689,0.0498 1.36851,0.0742 2.01562,0.0742 3.23556,0 6.02372,-0.52302 8.36328,-1.56836 2.33956,-1.04533 4.25472,-2.51274 5.74805,-4.40429 1.49333,-1.94134 2.59022,-4.25732 3.28711,-6.94532 0.74666,-2.73778 1.11914,-5.7987 1.11914,-9.18359 -10e-4,-0.31813 -0.0132,-0.64099 -0.0196,-0.91013 z m 37.53125,-3.62109 -7.60938,4.56641 -2.54492,-1.01758 v 22.41211 h 10.1543 z m -122.9961,18.30469 -6.38086,7.65625 h 6.38086 z"
             style="font-style:normal;font-variant:normal;font-weight:bold;font-stretch:normal;font-size:19.75555611px;font-family:'Encode Sans Compressed';-inkscape-font-specification:'Encode Sans Compressed Bold';fill:#6441a4;fill-opacity:1;stroke-width:0.99999994px" />
        </g>
        <path
           sodipodi:nodetypes="ccccccscccscscccccccccccccccccccccccccccccscccscccsccccccccccccscccsccscccsccccccsccccscscccsccscccscccsscc"
           inkscape:export-ydpi="800"
           inkscape:export-xdpi="800"
           inkscape:connector-curvature="0"
           id="text4617"
           d="m 83.696184,56.698346 v 9.084199 l 1.303798,-0.782381 1.403014,0.561208 v -0.684196 c 0.724371,-0.474133 1.363006,-0.711584 1.916163,-0.711586 0.671687,0 1.007689,0.460935 1.007689,1.382862 v 1.182357 l 0.673344,0.269235 2.013315,-1.208196 V 64.63998 c 0,-0.921925 -0.204084,-1.626779 -0.612368,-2.114083 -0.395107,-0.487304 -0.980979,-0.730705 -1.758032,-0.730705 -0.250235,0 -0.494154,0.01939 -0.731221,0.05891 -0.223895,0.03951 -0.46083,0.112194 -0.711067,0.217557 -0.250238,0.09219 -0.520539,0.217127 -0.810287,0.375171 -0.289748,0.144876 -0.618765,0.336026 -0.987536,0.573093 v -6.321579 z m -21.510831,5.116483 -2.185398,2.185395 -3.235976,1.294496 v 7.36596 h 1.01854 l 1.68827,-2.025716 v -5.32319 c 0.09219,-0.09219 0.210661,-0.184792 0.355534,-0.276987 0.158046,-0.105362 0.329279,-0.197444 0.513664,-0.276468 0.197557,-0.07902 0.395174,-0.151187 0.59273,-0.21704 0.210723,-0.06585 0.414809,-0.112155 0.612365,-0.138494 h 1.086239 v -2.587956 z m 16.505452,0 c -0.566325,0 -1.080027,0.112001 -1.540992,0.335897 -0.460962,0.210727 -0.84973,0.513361 -1.16582,0.908471 h -0.07906 L 75.78659,61.992595 h -2.469616 v 6.333982 l 1.6831,0.673344 1.023709,-0.20464 v -1.843815 c 0,-0.592667 0.03932,-1.093435 0.118341,-1.501716 0.07902,-0.408282 0.191024,-0.737298 0.335896,-0.987537 0.144875,-0.250236 0.316108,-0.427937 0.513665,-0.533301 0.210725,-0.118534 0.447659,-0.178281 0.711068,-0.178281 0.289747,0 0.540131,0.05975 0.750858,0.178281 0.210725,0.118532 0.375494,0.315635 0.494027,0.592214 0.131702,0.276575 0.223788,0.645428 0.276469,1.106393 0.06585,0.44779 0.0987,1.007795 0.0987,1.679481 0,0.299858 -0.0087,0.574484 -0.02326,0.833025 l 0.700217,-0.140044 2.083594,-1.250053 c -0.05308,-3.286922 -1.181642,-4.935099 -3.392556,-4.935099 z m -11.44323,0.01963 c -0.513643,0 -1.066662,0.03285 -1.659329,0.0987 -0.579495,0.06585 -1.152432,0.151472 -1.718759,0.256834 l 0.177768,1.975588 c 0.171214,-0.03951 0.381765,-0.07236 0.632002,-0.0987 0.263409,-0.03951 0.526725,-0.07236 0.790133,-0.0987 0.276577,-0.02633 0.533429,-0.04626 0.770496,-0.05943 0.250238,-0.02633 0.447855,-0.03927 0.592728,-0.03927 0.3556,0 0.651769,0.03285 0.888836,0.0987 0.237066,0.05268 0.421751,0.158216 0.553455,0.316259 0.14487,0.158047 0.243422,0.368597 0.296106,0.632005 0.05268,0.263406 0.07906,0.599409 0.07906,1.00769 v 0.335896 l -1.81746,0.118341 c -2.52871,0.184385 -3.793048,1.290423 -3.793048,3.31866 0,0.333958 0.03492,0.643909 0.102317,0.931209 l 1.858285,0.371552 0.912606,-0.730186 c -0.122526,-0.209384 -0.18655,-0.477342 -0.18655,-0.809255 0,-0.44779 0.124934,-0.777326 0.375172,-0.988051 0.263408,-0.223896 0.704942,-0.368747 1.323951,-0.434599 l 1.22473,-0.118341 v 0.160716 l 1.34979,-1.080037 1.356505,0.542603 v -2.330091 c 0,-1.185332 -0.329017,-2.040986 -0.987536,-2.567802 -0.645348,-0.539984 -1.685687,-0.810285 -3.121258,-0.810287 z M 52.054706,65.410986 V 67.7018 c 0,1.0668 -0.151834,1.824422 -0.454753,2.272214 -0.289748,0.434623 -0.697918,0.651639 -1.224732,0.651639 -0.579496,0 -0.994133,-0.249867 -1.244367,-0.750343 -0.226301,-0.477741 -0.34113,-1.2961 -0.351402,-2.43396 l -1.926497,3.852996 c 0.579662,0.778457 1.45696,1.168921 2.633432,1.168921 1.09314,0 1.942328,-0.395235 2.548165,-1.185458 h 0.09922 v 0.533302 c 0,0.566325 -0.05277,1.047179 -0.158131,1.442289 -0.09219,0.39511 -0.244028,0.717664 -0.45475,0.967899 -0.197559,0.250237 -0.460875,0.427939 -0.790133,0.533302 -0.31609,0.118533 -0.697873,0.177765 -1.145667,0.177765 -0.381942,0 -0.783643,-0.03285 -1.205095,-0.0987 -0.421449,-0.06585 -0.902306,-0.164404 -1.442289,-0.296106 l -0.177768,2.014863 c 1.0668,0.302919 2.087737,0.454237 3.062349,0.454237 3.292588,0 4.938715,-1.922891 4.938715,-5.768642 v -5.285459 z"
           style="display:inline;font-style:normal;font-weight:normal;font-size:19.75555611px;line-height:6.61458349px;font-family:sans-serif;letter-spacing:0px;word-spacing:0px;fill:#cd201f;fill-opacity:1;stroke:none;stroke-width:0.26458332px;stroke-linecap:butt;stroke-linejoin:miter;stroke-opacity:1" />
        <path
           inkscape:export-ydpi="800"
           inkscape:export-xdpi="800"
           inkscape:connector-curvature="0"
           id="text4505-3"
           d="m 2.6721882,56.698347 v 15.626437 c 1.0668,0.3556 2.0548878,0.5333 2.9636434,0.5333 0.8692446,-0.02635 1.5934979,-0.197575 2.1729941,-0.513665 0.5926667,-0.316087 1.0670521,-0.730724 1.4226521,-1.244367 0.3687705,-0.526815 0.6256216,-1.132602 0.7704952,-1.81746 0.158045,-0.684861 0.236679,-1.416095 0.236679,-2.193147 0,-1.751661 -0.283235,-3.068767 -0.8495611,-3.951182 C 8.8227651,62.255849 7.973578,61.81483 6.8409262,61.81483 c -0.5531557,0 -1.066858,0.112001 -1.5409913,0.335897 -0.4741334,0.210727 -0.8693685,0.51336 -1.1854574,0.908471 V 56.698347 Z M 41.99692,61.755402 c -0.974608,0 -1.738177,0.270301 -2.291334,0.810287 -0.553156,0.526814 -0.829923,1.264002 -0.829923,2.212268 0,0.619006 0.08562,1.113309 0.256831,1.48208 0.171214,0.368771 0.388749,0.664937 0.652158,0.888836 0.276577,0.210724 0.572746,0.368509 0.888833,0.473871 0.329261,0.09219 0.651812,0.177811 0.967902,0.256831 0.592666,0.144875 1.020751,0.375343 1.284157,0.691433 0.263409,0.316087 0.395325,0.737706 0.395325,1.264521 0,0.592666 -0.171233,1.053602 -0.513662,1.382863 -0.329261,0.316087 -0.803646,0.474387 -1.422654,0.474387 -0.408281,0 -0.842833,-0.03337 -1.303795,-0.09922 -0.447794,-0.07902 -0.882346,-0.190506 -1.303798,-0.335378 v 1.205092 c 0.592666,0.144875 1.092919,0.249891 1.501201,0.315743 0.421452,0.06585 0.823153,0.0987 1.205095,0.0987 0.987777,0 1.771782,-0.276251 2.351278,-0.829408 0.592666,-0.566325 0.888833,-1.323946 0.888833,-2.272212 0,-0.500473 -0.0657,-0.921576 -0.197403,-1.264005 -0.118533,-0.342424 -0.296751,-0.632127 -0.533818,-0.869194 -0.223896,-0.237066 -0.500147,-0.434684 -0.829405,-0.592727 -0.329261,-0.158044 -0.698111,-0.296429 -1.106395,-0.414962 -0.250235,-0.07902 -0.48717,-0.158173 -0.711068,-0.237196 -0.210725,-0.07902 -0.401875,-0.184039 -0.57309,-0.315741 -0.158044,-0.144875 -0.289446,-0.323093 -0.394809,-0.533818 -0.09219,-0.210727 -0.138493,-0.486979 -0.138493,-0.829408 0,-0.553154 0.177702,-0.981239 0.533302,-1.284158 0.3556,-0.316089 0.842918,-0.47439 1.461926,-0.47439 0.289748,0 0.585917,0.01992 0.888836,0.05943 0.302916,0.03951 0.711602,0.125127 1.225246,0.256831 V 62.071663 C 43.821381,61.95313 43.379847,61.87398 43.024247,61.83447 42.681818,61.78179 42.339349,61.7554 41.99692,61.7554 Z m -7.417636,0.03979 c -0.500475,0 -1.020643,0.112001 -1.560629,0.335897 -0.539985,0.210727 -1.14577,0.546211 -1.81746,1.007173 h -0.07906 l -0.0987,-1.145667 h -1.24437 V 72.66068 h 1.441773 v -8.455298 c 0.526815,-0.3556 1.027584,-0.625903 1.501717,-0.810286 0.487304,-0.197557 0.941774,-0.296106 1.363223,-0.296106 0.460965,-3e-6 0.796449,0.138382 1.007176,0.414959 0.210725,0.27658 0.316259,0.750449 0.316259,1.422136 v 7.724595 h 1.442289 v -8.060492 c 0,-1.000948 -0.177699,-1.718733 -0.533302,-2.153356 -0.342434,-0.434623 -0.922353,-0.65164 -1.738916,-0.65164 z m -18.741491,0.01963 c -1.343378,0 -2.357332,0.487318 -3.042192,1.461926 -0.684859,0.961438 -1.027327,2.377094 -1.027327,4.247286 0,1.712151 0.355402,3.029254 1.066601,3.951182 0.7112,0.908753 1.732138,1.363223 3.062346,1.363223 0.487303,0 0.974622,-0.05923 1.461926,-0.177766 0.500474,-0.105365 0.941493,-0.250213 1.323433,-0.434599 l -0.0987,-1.205095 c -0.487303,0.223896 -0.941772,0.38168 -1.363224,0.473874 -0.421452,0.09219 -0.842554,0.138491 -1.264005,0.138491 -0.869245,0 -1.527798,-0.303149 -1.97559,-0.908987 -0.447793,-0.619008 -0.698178,-1.567262 -0.750859,-2.844789 h 5.807914 c 0.02634,-0.223897 0.04626,-0.440912 0.05943,-0.65164 0.01317,-0.210725 0.01964,-0.481026 0.01964,-0.810287 0,-1.514591 -0.276252,-2.660462 -0.829407,-3.437514 -0.553156,-0.777052 -1.370009,-1.165305 -2.44998,-1.165305 z m 35.051091,0 c -1.606786,0 -2.824824,0.493787 -3.654558,1.481564 -0.829733,0.974606 -1.244885,2.410179 -1.244885,4.306712 0,1.646297 0.283233,2.871321 0.849561,3.674712 0.0043,0.0059 0.0096,0.01066 0.01394,0.01654 l 1.926498,-3.852995 c -5.29e-4,-0.0541 -0.0041,-0.09892 -0.0041,-0.154512 0,-0.684858 0.03285,-1.257279 0.0987,-1.718241 0.07902,-0.460963 0.197493,-0.829816 0.355534,-1.106392 0.171217,-0.289749 0.388236,-0.493831 0.651642,-0.612366 0.263406,-0.131704 0.579493,-0.197921 0.948264,-0.197921 0.434618,0 0.843304,0.07268 1.225246,0.217556 v 1.541511 l 2.706296,0.541567 V 62.40755 c -0.763906,-0.210725 -1.45531,-0.362043 -2.074316,-0.454234 -0.605837,-0.09219 -1.205156,-0.138494 -1.797822,-0.138494 z m 11.228771,0 c -0.263406,0.105363 -0.546643,0.230296 -0.849561,0.375172 -0.289748,0.144872 -0.566,0.296706 -0.829406,0.454752 -0.263408,0.158044 -0.493876,0.315828 -0.69143,0.473872 -0.197556,0.144875 -0.329475,0.263342 -0.395325,0.355533 h -0.137977 l -0.158131,-1.481562 h -2.291847 v 3.302124 l 3.235976,-1.294495 2.185397,-2.185396 z M 24.04246,61.83445 c -0.421452,0 -0.888854,0.03285 -1.402499,0.0987 -0.500473,0.05268 -1.000726,0.131834 -1.5012,0.237197 l 0.118339,1.185457 c 0.395111,-0.105362 0.83613,-0.184515 1.323434,-0.237196 0.487303,-0.06585 0.895989,-0.0987 1.225248,-0.0987 0.777052,0 1.330071,0.184166 1.65933,0.552937 0.34243,0.3556 0.513664,0.981302 0.513664,1.876888 V 66.5954 l -1.896525,0.138498 c -2.47603,0.197554 -3.713985,1.277726 -3.713985,3.240112 0,0.869243 0.224001,1.554181 0.671793,2.054656 0.447793,0.487301 1.066512,0.730702 1.856734,0.730702 0.592667,0 1.13922,-0.144849 1.639694,-0.434596 0.513644,-0.289751 0.981046,-0.605835 1.402498,-0.948264 h 0.118856 l 0.137976,1.28416 h 1.205094 v -7.487397 c 0,-1.145823 -0.269785,-1.988542 -0.80977,-2.528527 -0.539985,-0.539986 -1.389689,-0.810287 -2.548681,-0.810287 z M 6.4259642,62.960482 c 0.7902224,0 1.3760916,0.342469 1.7580325,1.027327 0.3819406,0.684858 0.5730914,1.758563 0.5730914,3.220474 0,1.554104 -0.2503844,2.699459 -0.7508584,3.437001 -0.5004742,0.737541 -1.2640442,1.106392 -2.2913332,1.106392 -0.4214518,0 -0.9550709,-0.07217 -1.600419,-0.217041 v -6.322094 c 0,-0.3556 0.0657,-0.671684 0.197404,-0.948264 C 4.4435853,63.9877 4.6148194,63.757232 4.8255452,63.572847 5.0494414,63.37529 5.2998261,63.223975 5.5764038,63.11861 5.8529815,63.013248 6.1362161,62.960482 6.4259642,62.960482 Z m 9.3725548,0.03979 c 0.671689,0 1.165474,0.296166 1.481563,0.888833 0.316089,0.579499 0.47439,1.534218 0.47439,2.864427 h -4.504635 c 0.06585,-1.238017 0.30977,-2.172819 0.731222,-2.804999 0.434622,-0.632177 1.040408,-0.948261 1.81746,-0.948261 z m 10.180257,4.622456 v 2.765724 c -0.158045,0.09219 -0.342729,0.211174 -0.553455,0.356049 -0.197555,0.131705 -0.414573,0.263105 -0.65164,0.394809 -0.223896,0.118533 -0.454364,0.224065 -0.69143,0.316259 -0.237067,0.07902 -0.467535,0.118338 -0.691431,0.118338 -0.500474,0 -0.889243,-0.144849 -1.16582,-0.434597 -0.263408,-0.302919 -0.394808,-0.731004 -0.394808,-1.284161 0,-0.658518 0.190634,-1.152302 0.572575,-1.481563 0.395111,-0.329258 1.053664,-0.533342 1.97559,-0.612365 z"
           style="font-style:normal;font-weight:normal;font-size:19.75555611px;line-height:6.61458349px;font-family:sans-serif;letter-spacing:0px;word-spacing:0px;display:inline;fill:#000000;fill-opacity:1;stroke:none;stroke-width:0.26458332px;stroke-linecap:butt;stroke-linejoin:miter;stroke-opacity:1" />
      </g>
      <g
         id="g4997"
         inkscape:export-xdpi="800"
         inkscape:export-ydpi="800">
        <g
           inkscape:export-ydpi="800"
           inkscape:export-xdpi="800"
           id="text4659-9"
           style="display:inline;font-style:normal;font-weight:normal;font-size:19.75555611px;line-height:6.61458349px;font-family:sans-serif;letter-spacing:0px;word-spacing:0px;fill:#6441a4;fill-opacity:1;stroke:none;stroke-width:0.26458332px;stroke-linecap:butt;stroke-linejoin:miter;stroke-opacity:1"
           aria-label="beansgraph"
           transform="translate(0.54673574,30.916242)">
          <path
             sodipodi:nodetypes="cccccscccccscccccccccccccccccccccsccccccccscccsccccccccccccc"
             inkscape:connector-curvature="0"
             id="path4857-0"
             transform="scale(0.26458333)"
             d="m 269.69336,255.27933 -5.12695,-2.05078 -5.10157,4.08203 v 7.1582 c -0.94578,0.64711 -2.04071,1.31874 -3.28515,2.01563 -1.19467,0.6471 -2.34044,0.9707 -3.43555,0.9707 -1.39378,0 -2.46232,-0.42331 -3.20898,-1.26953 -0.15864,-0.17979 -0.29101,-0.38616 -0.41602,-0.59961 l -3.44922,2.75976 -7.02344,-1.40429 c 0.44853,1.91178 1.28729,3.55288 2.5254,4.91797 1.94132,2.09065 4.53006,3.13671 7.76562,3.13671 2.19022,0 4.23149,-0.49858 6.12305,-1.49414 1.89155,-1.04533 3.48312,-2.28886 4.77734,-3.73242 h 0.59766 l 0.82226,4.85352 h 8.4375 c -0.14651,-7.56229 -0.004,-19.65712 -0.002,-19.34375 z m 51.56641,-9.60938 -4.92774,2.95703 v 25.9961 h 10.23047 v -26.83203 z m -11.02348,6.61328 c 0.0196,0.91013 0,0 0,0 z m 0,0 -7.875,4.72461 -2.64649,0.5293 c 9.6e-4,-0.017 10e-4,-0.0377 0.002,-0.0547 -0.0732,1.31905 -0.19057,2.51449 -0.36328,3.55078 -0.29867,1.792 -0.77086,3.23497 -1.41797,4.33008 -0.59733,1.09511 -1.41756,1.89285 -2.46289,2.39063 -0.99556,0.448 -2.2166,0.67187 -3.66016,0.67187 -1.59289,0 -3.08474,-0.27471 -4.47852,-0.82226 v -7.58985 l -3.86914,0.77344 -6.36132,-2.54492 v 32.80664 h 10.23046 V 274.9219 c 0.896,0.1493 1.69179,0.24903 2.38868,0.29882 0.69689,0.0498 1.36851,0.0742 2.01562,0.0742 3.23556,0 6.02372,-0.52302 8.36328,-1.56836 2.33956,-1.04533 4.25472,-2.51274 5.74805,-4.40429 1.49333,-1.94134 2.59022,-4.25732 3.28711,-6.94532 0.74666,-2.73778 1.11914,-5.7987 1.11914,-9.18359 -10e-4,-0.31813 -0.0132,-0.64099 -0.0196,-0.91013 z m 37.53125,-3.62109 -7.60938,4.56641 -2.54492,-1.01758 v 22.41211 h 10.1543 z m -122.9961,18.30469 -6.38086,7.65625 h 6.38086 z"
             style="font-style:normal;font-variant:normal;font-weight:bold;font-stretch:normal;font-size:19.75555611px;font-family:'Encode Sans Compressed';-inkscape-font-specification:'Encode Sans Compressed Bold';fill:#6441a4;fill-opacity:1;stroke-width:0.99999994px" />
        </g>
        <path
           sodipodi:nodetypes="ccccccscccscscccccccccccccccccccccccccccccscccscccsccccccccccccscccsccscccsccccccsccccscscccsccscccscccsscc"
           inkscape:export-ydpi="800"
           inkscape:export-xdpi="800"
           inkscape:connector-curvature="0"
           id="text4617-7"
           d="m 84.24292,87.614589 v 9.084199 l 1.303798,-0.782381 1.403014,0.561208 v -0.684196 c 0.724371,-0.474133 1.363006,-0.711584 1.916163,-0.711586 0.671687,0 1.007689,0.460935 1.007689,1.382862 v 1.182357 l 0.673344,0.269235 2.013315,-1.208196 v -1.151868 c 0,-0.921925 -0.204084,-1.626779 -0.612368,-2.114083 -0.395107,-0.487305 -0.98098,-0.730705 -1.758032,-0.730705 -0.250235,0 -0.494154,0.01939 -0.731221,0.05891 -0.223895,0.03951 -0.46083,0.112194 -0.711067,0.217557 -0.250238,0.09219 -0.520539,0.217127 -0.810287,0.37517 -0.289748,0.144877 -0.618765,0.336027 -0.987536,0.573094 v -6.321579 z m -21.510832,5.116483 -2.185398,2.185395 -3.235976,1.294496 v 7.365957 h 1.01854 l 1.68827,-2.02571 v -5.323193 c 0.09219,-0.09219 0.210661,-0.184792 0.355533,-0.276987 0.158047,-0.105362 0.32928,-0.197444 0.513665,-0.276468 0.197557,-0.07902 0.395174,-0.151187 0.59273,-0.21704 0.210722,-0.06585 0.414809,-0.112155 0.612365,-0.138494 h 1.086239 v -2.587956 z m 16.505453,0 c -0.566325,0 -1.080027,0.112001 -1.540992,0.335897 -0.460962,0.210727 -0.849731,0.513361 -1.16582,0.90847 h -0.07906 L 76.333326,92.908838 H 73.86371 v 6.333982 l 1.683099,0.673344 1.02371,-0.20464 v -1.843815 c 0,-0.592667 0.03932,-1.093435 0.118341,-1.501716 0.07902,-0.408282 0.191023,-0.737298 0.335896,-0.987537 0.144875,-0.250236 0.316108,-0.427937 0.513665,-0.533301 0.210725,-0.118534 0.447659,-0.178281 0.711067,-0.178281 0.289748,0 0.540131,0.05975 0.750859,0.178281 0.210725,0.118532 0.375494,0.315635 0.494027,0.592214 0.131702,0.276575 0.223787,0.645428 0.276469,1.106393 0.06585,0.44779 0.0987,1.007795 0.0987,1.679481 0,0.299858 -0.0087,0.574484 -0.02326,0.833025 l 0.700217,-0.140044 2.083594,-1.250053 c -0.05308,-3.286922 -1.181642,-4.935099 -3.392556,-4.935099 z m -11.443231,0.01963 c -0.513643,0 -1.066662,0.03285 -1.659329,0.0987 -0.579495,0.06585 -1.152432,0.151471 -1.71876,0.256833 l 0.177769,1.975588 c 0.171214,-0.03951 0.381764,-0.07236 0.632002,-0.0987 0.263409,-0.03951 0.526725,-0.07236 0.790133,-0.0987 0.276577,-0.02633 0.533429,-0.04626 0.770496,-0.05943 0.250238,-0.02633 0.447855,-0.03927 0.592727,-0.03927 0.3556,0 0.65177,0.03285 0.888836,0.0987 0.237067,0.05268 0.421752,0.158216 0.553456,0.316259 0.14487,0.158047 0.243422,0.368597 0.296106,0.632005 0.05268,0.263406 0.07906,0.599409 0.07906,1.00769 v 0.335896 l -1.81746,0.118341 c -2.52871,0.184385 -3.793048,1.290423 -3.793048,3.318666 0,0.33395 0.03492,0.6439 0.102317,0.9312 l 1.858285,0.37156 0.912606,-0.73019 c -0.122526,-0.20938 -0.18655,-0.47734 -0.18655,-0.80926 0,-0.447784 0.124934,-0.777321 0.375171,-0.988046 0.263409,-0.223895 0.704943,-0.368746 1.323952,-0.434598 l 1.224729,-0.118342 v 0.160717 l 1.349791,-1.080038 1.356505,0.542603 v -2.330091 c 0,-1.185332 -0.329017,-2.040986 -0.987536,-2.567802 C 70.27022,93.021009 69.229881,92.750708 67.79431,92.750706 Z M 52.601442,96.32723 v 2.290815 c 0,1.0668 -0.151835,1.824425 -0.454754,2.272215 -0.289747,0.43462 -0.697918,0.65164 -1.224732,0.65164 -0.579496,0 -0.994133,-0.24987 -1.244368,-0.75035 -0.2263,-0.47774 -0.34113,-1.296095 -0.351401,-2.433955 l -1.926497,3.852995 c 0.579663,0.77846 1.45696,1.16892 2.633432,1.16892 1.09314,0 1.942329,-0.39523 2.548165,-1.18546 h 0.09922 v 0.53331 c 0,0.56632 -0.05277,1.04717 -0.158131,1.44228 -0.09219,0.39511 -0.244028,0.71767 -0.45475,0.9679 -0.197559,0.25024 -0.460875,0.42794 -0.790133,0.53331 -0.31609,0.11853 -0.697873,0.17776 -1.145667,0.17776 -0.381942,0 -0.783643,-0.0328 -1.205095,-0.0987 -0.42145,-0.0658 -0.902306,-0.1644 -1.442289,-0.29611 l -0.177768,2.01487 c 1.0668,0.30292 2.087737,0.45423 3.062349,0.45423 3.292589,0 4.938715,-1.92289 4.938715,-5.76864 v -5.285457 z"
           style="display:inline;font-style:normal;font-weight:normal;font-size:19.75555611px;line-height:6.61458349px;font-family:sans-serif;letter-spacing:0px;word-spacing:0px;fill:#cd201f;fill-opacity:1;stroke:none;stroke-width:0.26458332px;stroke-linecap:butt;stroke-linejoin:miter;stroke-opacity:1" />
        <path
           inkscape:export-ydpi="800"
           inkscape:export-xdpi="800"
           inkscape:connector-curvature="0"
           id="text4505-3-6"
           d="m 3.2189227,87.614589 v 15.626441 c 1.0668,0.3556 2.054888,0.5333 2.963644,0.5333 0.869244,-0.0264 1.5934981,-0.19758 2.172994,-0.51367 0.592667,-0.31608 1.0670522,-0.73072 1.4226522,-1.24436 0.3687701,-0.52682 0.6256221,-1.13261 0.7704951,-1.81746 0.158045,-0.684867 0.236679,-1.416101 0.236679,-2.193153 0,-1.75166 -0.283235,-3.068767 -0.8495613,-3.951182 -0.5663258,-0.882414 -1.4155129,-1.323433 -2.548165,-1.323433 -0.5531549,0 -1.066858,0.112002 -1.540991,0.335897 -0.474133,0.210727 -0.869368,0.51336 -1.185457,0.908471 v -6.360851 z m 39.3247323,5.057055 c -0.974608,0 -1.738177,0.270301 -2.291334,0.810287 -0.553156,0.526814 -0.829923,1.264002 -0.829923,2.212268 0,0.619006 0.08562,1.113309 0.256831,1.48208 0.171214,0.368771 0.388749,0.664937 0.652158,0.888836 0.276577,0.210724 0.572746,0.368509 0.888833,0.473871 0.329261,0.09219 0.651812,0.177811 0.967902,0.256831 0.592666,0.144875 1.020751,0.375343 1.284157,0.691433 0.263409,0.316087 0.395325,0.73771 0.395325,1.26452 0,0.59267 -0.171233,1.0536 -0.513662,1.38287 -0.329261,0.31608 -0.803646,0.47438 -1.422654,0.47438 -0.408281,0 -0.842833,-0.0334 -1.303795,-0.0992 -0.447794,-0.079 -0.882346,-0.1905 -1.303798,-0.33538 v 1.2051 c 0.592666,0.14487 1.092919,0.24989 1.501201,0.31574 0.421452,0.0658 0.823153,0.0987 1.205095,0.0987 0.987777,0 1.771782,-0.27625 2.351278,-0.82941 0.592666,-0.56632 0.888833,-1.32394 0.888833,-2.27221 0,-0.50047 -0.0657,-0.921578 -0.197403,-1.264007 -0.118533,-0.342424 -0.296751,-0.632127 -0.533818,-0.869194 -0.223896,-0.237066 -0.500147,-0.434684 -0.829405,-0.592727 -0.329261,-0.158044 -0.698111,-0.296429 -1.106395,-0.414962 -0.250235,-0.07902 -0.48717,-0.158172 -0.711068,-0.237196 -0.210725,-0.07902 -0.401875,-0.184038 -0.57309,-0.315741 -0.158044,-0.144875 -0.289446,-0.323093 -0.394809,-0.533818 -0.09219,-0.210727 -0.138493,-0.486979 -0.138493,-0.829408 0,-0.553154 0.177702,-0.981239 0.533302,-1.284158 0.3556,-0.316089 0.842918,-0.47439 1.461926,-0.47439 0.289748,0 0.585917,0.01992 0.888836,0.05943 0.302916,0.03951 0.711602,0.125127 1.225246,0.256831 v -1.205096 c -0.526815,-0.118532 -0.968349,-0.197682 -1.323949,-0.237192 -0.342429,-0.05268 -0.684898,-0.07907 -1.027327,-0.07907 z m -7.417636,0.03979 c -0.500475,0 -1.020643,0.112001 -1.560629,0.335897 -0.539985,0.210726 -1.14577,0.54621 -1.81746,1.007173 h -0.07906 l -0.0987,-1.145667 H 30.3258 v 10.668083 h 1.441773 v -8.455296 c 0.526815,-0.3556 1.027584,-0.625903 1.501717,-0.810285 0.487304,-0.197557 0.941774,-0.296107 1.363223,-0.296107 0.460965,-2e-6 0.796449,0.138382 1.007176,0.414959 0.210725,0.276581 0.316259,0.75045 0.316259,1.422136 v 7.724593 h 1.442289 v -8.06049 c 0,-1.000947 -0.177699,-1.718733 -0.533302,-2.153356 -0.342434,-0.434624 -0.922353,-0.65164 -1.738916,-0.65164 z m -18.741491,0.01963 c -1.343378,0 -2.357332,0.487318 -3.042192,1.461925 -0.684859,0.96144 -1.027327,2.377096 -1.027327,4.247288 0,1.712153 0.355402,3.029253 1.066601,3.951183 0.7112,0.90875 1.732138,1.36322 3.062346,1.36322 0.487303,0 0.974622,-0.0592 1.461926,-0.17776 0.500474,-0.10537 0.941493,-0.25022 1.323433,-0.4346 l -0.0987,-1.2051 c -0.487303,0.2239 -0.941772,0.38168 -1.363224,0.47388 -0.421452,0.0922 -0.842554,0.13849 -1.264005,0.13849 -0.869245,0 -1.527798,-0.30315 -1.97559,-0.90899 -0.447793,-0.61901 -0.698178,-1.56726 -0.750859,-2.844789 h 5.807914 c 0.02634,-0.223897 0.04626,-0.440912 0.05943,-0.651641 0.01317,-0.210725 0.01964,-0.481026 0.01964,-0.810287 0,-1.51459 -0.276251,-2.660461 -0.829407,-3.437514 -0.553156,-0.777051 -1.370009,-1.165304 -2.44998,-1.165304 z m 35.051091,0 c -1.606786,0 -2.824824,0.493787 -3.654558,1.481565 -0.829733,0.974605 -1.244885,2.410179 -1.244885,4.306711 0,1.6463 0.283233,2.87132 0.849561,3.67471 0.0043,0.006 0.0096,0.0107 0.01394,0.0165 l 1.926498,-3.852992 c -5.29e-4,-0.0541 -0.0041,-0.09892 -0.0041,-0.154513 0,-0.684858 0.03285,-1.257278 0.0987,-1.718241 0.07902,-0.460962 0.197493,-0.829816 0.355534,-1.106392 0.171217,-0.289749 0.388233,-0.493831 0.651642,-0.612365 0.263406,-0.131704 0.57949,-0.197921 0.948264,-0.197921 0.434618,0 0.843304,0.07268 1.225246,0.217556 v 1.54151 l 2.706296,0.541567 V 93.323793 C 54.543854,93.113068 53.85245,92.96175 53.233444,92.869559 52.627606,92.777369 52.028288,92.731065 51.435621,92.731065 Z m 11.228771,0 c -0.263406,0.105363 -0.546643,0.230297 -0.849561,0.375172 -0.289748,0.144871 -0.566,0.296706 -0.829406,0.454751 -0.263408,0.158045 -0.493876,0.315829 -0.69143,0.473873 -0.197556,0.144876 -0.329475,0.263342 -0.395325,0.355534 H 59.760691 L 59.60256,92.908831 h -2.291847 v 3.302124 l 3.235976,-1.294495 2.185397,-2.185396 z m -38.075194,0.01963 c -0.421453,0 -0.888855,0.03285 -1.4025,0.0987 -0.500473,0.05268 -1.000726,0.131834 -1.5012,0.237197 l 0.11834,1.185457 c 0.395111,-0.105362 0.836129,-0.184515 1.323433,-0.237196 0.487303,-0.06585 0.895989,-0.0987 1.225249,-0.0987 0.777051,0 1.330071,0.184166 1.659329,0.552936 0.342431,0.3556 0.513664,0.981302 0.513664,1.876888 v 1.145668 l -1.896525,0.138497 c -2.47603,0.197554 -3.713985,1.277727 -3.713985,3.240119 0,0.86924 0.224001,1.55418 0.671793,2.05465 0.447793,0.4873 1.066512,0.7307 1.856735,0.7307 0.592666,0 1.139219,-0.14485 1.639693,-0.43459 0.513644,-0.28975 0.981047,-0.60584 1.402498,-0.94827 h 0.118857 l 0.137976,1.28416 h 1.205094 v -7.487391 c 0,-1.145822 -0.269786,-1.988542 -0.80977,-2.528527 -0.539985,-0.539986 -1.38969,-0.810286 -2.548681,-0.810286 z M 6.9726987,93.876728 c 0.7902231,0 1.3760921,0.342469 1.758033,1.027327 0.3819401,0.684859 0.5730909,1.758563 0.5730909,3.220474 0,1.554104 -0.2503839,2.699461 -0.7508578,3.437001 -0.500474,0.73754 -1.264044,1.10639 -2.291333,1.10639 -0.4214521,0 -0.9550711,-0.0722 -1.6004191,-0.21704 v -6.322093 c 0,-0.3556 0.0657,-0.671684 0.197404,-0.948264 0.131703,-0.276577 0.302938,-0.507045 0.513663,-0.691429 0.223897,-0.197558 0.474281,-0.348874 0.7508592,-0.454238 0.2765779,-0.105362 0.5598117,-0.158128 0.8495598,-0.158128 z m 9.3725553,0.03979 c 0.671689,0 1.165474,0.296165 1.481563,0.888833 0.316089,0.579498 0.47439,1.534218 0.47439,2.864427 h -4.504635 c 0.06585,-1.238017 0.30977,-2.17282 0.731222,-2.805 0.434622,-0.632176 1.040408,-0.94826 1.81746,-0.94826 z m 10.180257,4.622456 v 2.765726 c -0.158045,0.0922 -0.342728,0.21117 -0.553455,0.35605 -0.197555,0.1317 -0.414573,0.2631 -0.651639,0.39481 -0.223897,0.11853 -0.454365,0.22406 -0.691431,0.31626 -0.237066,0.079 -0.467535,0.11833 -0.691431,0.11833 -0.500474,0 -0.889243,-0.14484 -1.16582,-0.43459 -0.263407,-0.30292 -0.394807,-0.73101 -0.394807,-1.28416 0,-0.65852 0.190633,-1.152307 0.572575,-1.481568 0.395111,-0.329258 1.053663,-0.533342 1.97559,-0.612365 z"
           style="font-style:normal;font-weight:normal;font-size:19.75555611px;line-height:6.61458349px;font-family:sans-serif;letter-spacing:0px;word-spacing:0px;display:inline;fill:#ffffff;fill-opacity:1;stroke:none;stroke-width:0.26458332px;stroke-linecap:butt;stroke-linejoin:miter;stroke-opacity:1" />
      </g>
    </g>
  </g>
  <g
     inkscape:groupmode="layer"
     id="layer2"
     inkscape:label="Favicon">
    <g
       inkscape:groupmode="layer"
       id="layer4"
       inkscape:label="Hintergund"
       style="display:none">
      <rect
         style="opacity:1;fill:#ffffff;fill-opacity:1;fill-rule:nonzero;stroke:none;stroke-width:0.15875001;stroke-miterlimit:4;stroke-dasharray:none;stroke-opacity:0.97391304"
         id="rect4660"
         width="15.225833"
         height="14.728256"
         x="72.82634"
         y="7.8445077"
         inkscape:export-xdpi="74.708626"
         inkscape:export-ydpi="74.708626" />
    </g>
    <g
       inkscape:groupmode="layer"
       id="layer6"
       inkscape:label="Buchstaben">
      <g
         id="g4705"
         inkscape:export-xdpi="104.99007"
         inkscape:export-ydpi="104.99007">
        <path
           id="flowRoot4516-9-0"
           d="m 78.835497,12.772871 c -0.147989,0 -0.290139,0.01418 -0.425815,0.04237 0.135824,-0.02826 0.277646,-0.04237 0.425815,-0.04237 z m 4.965589,0 c 0.3175,0 0.638172,0.02451 0.962731,0.0739 -0.324559,-0.04939 -0.645231,-0.0739 -0.962731,-0.0739 z m -5.39192,0.04237 c -0.135824,0.02826 -0.265136,0.07068 -0.388607,0.127124 0.123323,-0.05638 0.252961,-0.09886 0.388607,-0.127124 z m 0.895035,0.01292 c 0.116388,0.02854 0.226293,0.06636 0.327628,0.117822 -0.101216,-0.0514 -0.211396,-0.08929 -0.327628,-0.117822 z m 0.490927,0.215491 c 0.05214,0.03611 0.101949,0.07604 0.149344,0.119373 -0.04748,-0.04343 -0.09711,-0.0832 -0.149344,-0.119373 z m -2.259293,0.241845 c -0.04587,0.04804 -0.08862,0.09932 -0.129191,0.153996 0.04057,-0.05468 0.08384,-0.105957 0.129707,-0.153996 -8.8e-5,9.3e-5 -5.29e-4,-9.2e-5 -5.29e-4,0 z m 4.307229,0.28112 c -0.111125,0.130528 -0.20859,0.276286 -0.291971,0.4377 0.08338,-0.161414 0.180848,-0.307172 0.291971,-0.4377 z m -0.291971,0.4377 c -0.208452,0.403533 -0.330054,0.903726 -0.364836,1.500166 0.03478,-0.59644 0.156384,-1.096633 0.364836,-1.500166 z m -2.762623,-0.04341 c 0.07516,0.06355 0.136975,0.151142 0.184486,0.261999 -0.04762,-0.111125 -0.10908,-0.198412 -0.184486,-0.261999 z m 0.184486,0.261999 c 0.03527,0.07408 0.06519,0.160623 0.08992,0.259416 -0.02474,-0.09879 -0.05464,-0.185332 -0.08992,-0.259416 z m 0.148312,0.592729 c 0.03528,0.239888 0.05271,0.539337 0.05271,0.89917 0,-0.359833 -0.01744,-0.659282 -0.05271,-0.89917 z m 6.754109,0.192753 -0.938961,1.010274 -0.518314,0.09767 c -0.01704,0.468454 -0.09325,0.816059 -0.236161,1.027327 -0.155224,0.232833 -0.374068,0.349333 -0.656292,0.349333 -0.310443,0 -0.532571,-0.133932 -0.666625,-0.402043 -0.0722,-0.152419 -0.121756,-0.374824 -0.152964,-0.652673 l -1.473295,0.277502 c 0.06911,0.470173 0.201321,0.84693 0.398425,1.126547 0.310447,0.423333 0.783003,0.635103 1.418003,0.635103 0.58561,0 1.040736,-0.21177 1.365292,-0.635103 h 0.05323 v 0.28577 c 0,0.303389 -0.02831,0.560897 -0.08475,0.772563 -0.04939,0.211667 -0.130505,0.384258 -0.243395,0.518315 -0.105831,0.134051 -0.246838,0.229327 -0.42323,0.28577 -0.169334,0.0635 -0.374026,0.0956 -0.613916,0.0956 -0.20461,0 -0.419661,-0.01794 -0.645437,-0.05323 -0.225783,-0.03528 -0.483283,-0.08809 -0.772563,-0.158647 l -0.0956,1.079521 c 0.5715,0.162277 1.118614,0.243396 1.640727,0.243396 1.763887,0 2.645833,-1.030026 2.645833,-3.090251 z m -3.207038,0.696082 c 0,0.145007 0.0036,0.277839 0.01035,0.402042 -0.0062,-0.125831 -0.01035,-0.257345 -0.01035,-0.402042 z m -1.492417,0.169498 c 0,0.145083 0.0052,0.281589 0.01344,0.414445 -0.0084,-0.132261 -0.01344,-0.269543 -0.01344,-0.414445 z m 0.0181,0.47439 c 0.009,0.124866 0.02122,0.244874 0.03772,0.358634 -0.01654,-0.113904 -0.02848,-0.233996 -0.03772,-0.358634 z m -2.083604,0.308508 c -0.02117,0.127 -0.04867,0.241322 -0.08217,0.343649 0.03343,-0.102212 0.06103,-0.216835 0.08217,-0.343649 z m 1.382345,0.197921 -0.581877,0.109554 -2.300118,1.69447 c 0.131387,0.01053 0.262001,0.01964 0.388607,0.01964 0.486833,-0.01411 0.899501,-0.09903 1.238167,-0.254248 0.338664,-0.155221 0.610323,-0.37027 0.814938,-0.645438 0.201981,-0.262576 0.347549,-0.571457 0.440283,-0.923975 z m -2.881995,1.804024 c -0.06757,-0.0054 -0.136089,-0.01309 -0.20464,-0.02067 0.06873,0.0082 0.13715,0.01526 0.20464,0.02067 z m 1.298628,-1.388029 c -0.04233,0.07761 -0.09266,0.144624 -0.150895,0.201022 0.05823,-0.0564 0.108561,-0.123411 0.150895,-0.201022 z m -0.349332,0.338481 c -0.141111,0.0635 -0.313706,0.0956 -0.518314,0.0956 0.204608,0 0.377203,-0.0321 0.518314,-0.0956 z m -1.003038,0.02946 c 0.05136,0.01467 0.103431,0.0269 0.156577,0.03669 -0.05293,-0.0098 -0.105418,-0.0221 -0.156577,-0.03669 z"
           style="font-style:normal;font-variant:normal;font-weight:normal;font-stretch:normal;font-size:40px;line-height:25px;font-family:'Encode Sans Compressed';-inkscape-font-specification:'Encode Sans Compressed';letter-spacing:0px;word-spacing:0px;display:inline;fill:#6441a4;fill-opacity:1;stroke:none;stroke-width:0.26458332px;stroke-linecap:butt;stroke-linejoin:miter;stroke-opacity:1"
           inkscape:connector-curvature="0" />
        <path
           id="flowRoot4516"
           d="m 75.956374,10.031779 v 4.406449 l 1.450041,-1.523421 v -2.883028 z"
           style="font-style:normal;font-variant:normal;font-weight:normal;font-stretch:normal;font-size:40px;line-height:25px;font-family:'Encode Sans Compressed';-inkscape-font-specification:'Encode Sans Compressed';letter-spacing:0px;word-spacing:0px;display:inline;fill:#000000;fill-opacity:1;stroke:none;stroke-width:0.26458332px;stroke-linecap:butt;stroke-linejoin:miter;stroke-opacity:1"
           inkscape:connector-curvature="0" />
        <path
           id="flowRoot4516-9"
           d="m 78.835498,12.772869 c -0.296336,0 -0.567995,0.05661 -0.814938,0.169499 -0.246949,0.112889 -0.451639,0.278405 -0.613916,0.497127 V 12.914979 L 75.956603,14.4384 v 3.859197 c 0.373944,0.119944 0.730002,0.215215 1.068668,0.28577 0.200552,0.0376 0.394716,0.06016 0.585494,0.07545 l 2.300118,-1.69447 0.581877,-0.109554 c 0.0044,-0.0169 0.01027,-0.0325 0.01447,-0.04961 0.09878,-0.381 0.14831,-0.800744 0.14831,-1.259355 0,-1.848556 -0.606492,-2.772958 -1.820043,-2.772958 z m 4.965589,0 c -0.860777,0 -1.513519,0.264584 -1.958023,0.79375 -0.4445,0.522112 -0.667142,1.291353 -0.667142,2.307353 0,0.308958 0.01958,0.588289 0.05684,0.841809 l 1.473297,-0.277503 c -0.02368,-0.210898 -0.03772,-0.450664 -0.03772,-0.733805 0,-0.366889 0.01794,-0.673929 0.05323,-0.920874 0.04233,-0.246944 0.105503,-0.444563 0.19017,-0.592728 0.09172,-0.155222 0.208221,-0.264646 0.349332,-0.328146 0.14111,-0.07055 0.310425,-0.105419 0.507978,-0.10542 0.232834,0 0.451681,0.03866 0.656292,0.116272 v 2.053105 c 0,0.06818 -0.0049,0.126191 -0.0072,0.189652 l 0.51831,-0.09767 0.938961,-1.010274 v -1.91823 c -0.409227,-0.112889 -0.779953,-0.194006 -1.11156,-0.243395 -0.324559,-0.04939 -0.645232,-0.0739 -0.962732,-0.0739 z m -5.494756,1.037146 c 0.155218,0 0.289153,0.03158 0.402042,0.09509 0.112887,0.0635 0.201084,0.169643 0.264584,0.31781 0.07055,0.148167 0.120091,0.345784 0.148312,0.592729 0.03528,0.239888 0.05271,0.539337 0.05271,0.899169 0,0.373946 -0.02122,0.688062 -0.06356,0.942062 -0.04233,0.254 -0.109294,0.458693 -0.201023,0.613916 -0.08467,0.155221 -0.201165,0.267926 -0.349332,0.338481 -0.14111,0.0635 -0.313706,0.0956 -0.518313,0.0956 -0.225785,0 -0.43755,-0.03918 -0.635103,-0.116789 v -2.06344 c 0,-0.3175 0.02122,-0.585879 0.06356,-0.804602 0.04233,-0.218722 0.102221,-0.395112 0.179834,-0.529166 0.07761,-0.134057 0.169085,-0.229326 0.274918,-0.285771 0.11289,-0.0635 0.24026,-0.0951 0.381373,-0.09509 z"
           style="font-style:normal;font-variant:normal;font-weight:normal;font-stretch:normal;font-size:40px;line-height:25px;font-family:'Encode Sans Compressed';-inkscape-font-specification:'Encode Sans Compressed';letter-spacing:0px;word-spacing:0px;display:inline;fill:#cd201f;fill-opacity:1;stroke:none;stroke-width:0.26458332px;stroke-linecap:butt;stroke-linejoin:miter;stroke-opacity:1"
           inkscape:connector-curvature="0" />
      </g>
    </g>
  </g>
</svg>
