<?xml version="1.0" encoding="UTF-8" standalone="no"?>
<!-- Created with Inkscape (http://www.inkscape.org/) -->

<svg
   xmlns:dc="http://purl.org/dc/elements/1.1/"
   xmlns:cc="http://creativecommons.org/ns#"
   xmlns:rdf="http://www.w3.org/1999/02/22-rdf-syntax-ns#"
   xmlns:svg="http://www.w3.org/2000/svg"
   xmlns="http://www.w3.org/2000/svg"
   xmlns:sodipodi="http://sodipodi.sourceforge.net/DTD/sodipodi-0.dtd"
   xmlns:inkscape="http://www.inkscape.org/namespaces/inkscape"
   version="1.1"
   id="svg2"
   xml:space="preserve"
   width="576"
   height="288"
   viewBox="0 0 576 288"
   sodipodi:docname="twitch-logo-light.svg"
   inkscape:version="0.92.1 r"><metadata
     id="metadata8"><rdf:RDF><cc:Work
         rdf:about=""><dc:format>image/svg+xml</dc:format><dc:type
           rdf:resource="http://purl.org/dc/dcmitype/StillImage" /><dc:title /></cc:Work></rdf:RDF></metadata><defs
     id="defs6" /><sodipodi:namedview
     pagecolor="#ffffff"
     bordercolor="#666666"
     borderopacity="1"
     objecttolerance="10"
     gridtolerance="10"
     guidetolerance="10"
     inkscape:pageopacity="0"
     inkscape:pageshadow="2"
     inkscape:window-width="1876"
     inkscape:window-height="1051"
     id="namedview4"
     showgrid="false"
     inkscape:zoom="3.0729167"
     inkscape:cx="287.99999"
     inkscape:cy="144"
     inkscape:window-x="44"
     inkscape:window-y="0"
     inkscape:window-maximized="1"
     inkscape:current-layer="g10" /><g
     id="g10"
     inkscape:groupmode="layer"
     inkscape:label="Twitch_Black_RGB"
     transform="matrix(1.3333333,0,0,-1.3333333,0,288)"><g
       id="g12"
       transform="translate(353,82)"
       style="fill:#6441a4;fill-opacity:1"
       inkscape:export-xdpi="50"
       inkscape:export-ydpi="50"><path
         d="M 0,0 H -17 V 34 H -33 V 0 h -17 v 67 h 17 V 52 h 22 L 0,41 Z M -57,34 H -79 V 18 h 22 V 0 h -28 l -11,11 v 30 l 11,11 h 28 z m -46,0 h -15 V 18 h 15 V 0 h -22 l -11,11 v 56 h 18 V 52 h 15 z m -40,25 h -18 v 8 h 18 z m 0,-59 h -18 v 52 h 18 z m -24,12 -12,-12 h -56 v 52 h 18 V 18 h 7 v 34 h 18 V 18 h 7 v 34 h 18 z m -74,22 h -16 V 18 h 16 V 0 h -22 l -11,11 v 56 h 17 V 52 h 16 z M -8,59 H -25 V 74 H -57 L -72,59 h -16 l -9,-8 v 8 h -14 v 15 h -56 V 59 h -68 l -15,15 h -31 V 7.909 L -266,-7 l 25,-15 h 21 v 4 l 8,-4 h 40 l 7,9 1,-9 h 26 l 1,9 9,-9 h 24 l 1,9 8,-9 h 26 l 9,9 v -9 h 14 l 12,9 v -9 h 16 L 7,-5 v 49 z"
         style="fill:#6441a4;fill-opacity:1;fill-rule:nonzero;stroke:none"
         id="path14"
         inkscape:connector-curvature="0" /></g></g></svg>